<svg width="190" height="64" viewBox="0 0 190 64" fill="none" xmlns="http://www.w3.org/2000/svg">
<path d="M49.0987 0H14.6382C6.55376 0 0 6.58082 0 14.6987V49.3013C0 57.4192 6.55376 64 14.6382 64H49.0987C57.1831 64 63.7369 57.4192 63.7369 49.3013V14.6987C63.7369 6.58082 57.1831 0 49.0987 0Z" fill="url(#paint0_linear_822_3675)"/>
<path d="M23.6882 33.6312H12.2952C11.8642 33.6312 11.4508 33.4592 11.146 33.1532C10.8412 32.8471 10.6699 32.432 10.6699 31.9992C10.6699 31.5664 10.8412 31.1512 11.146 30.8452C11.4508 30.5391 11.8642 30.3672 12.2952 30.3672H23.7147C24.1458 30.3672 24.5592 30.5391 24.864 30.8452C25.1688 31.1512 25.34 31.5664 25.34 31.9992C25.34 32.432 25.1688 32.8471 24.864 33.1532C24.5592 33.4592 24.1458 33.6312 23.7147 33.6312H23.6882Z" fill="white"/>
<path d="M38.5556 49.4815C38.1274 49.4815 37.7027 49.4038 37.3021 49.2522C36.63 49.0037 36.0504 48.5536 35.6418 47.9631C35.2332 47.3725 35.0155 46.6699 35.0182 45.9508V35.7375H31.587C30.9106 35.7367 30.2486 35.5406 29.6801 35.1725C29.1116 34.8044 28.6605 34.2799 28.3806 33.6616C28.1007 33.0432 28.0038 32.3571 28.1014 31.685C28.199 31.0129 28.4871 30.3831 28.9313 29.8708L41.3387 15.7162C41.8099 15.176 42.434 14.7929 43.1276 14.618C43.8212 14.4431 44.5515 14.4848 45.2209 14.7375C45.8903 14.9901 46.4671 15.4417 46.8743 16.0321C47.2815 16.6224 47.4998 17.3234 47.5 18.0415V28.2548H50.9311C51.6085 28.2534 52.272 28.4482 52.8419 28.8158C53.4119 29.1835 53.8641 29.7084 54.1444 30.3276C54.4247 30.9469 54.5212 31.6341 54.4223 32.3071C54.3234 32.98 54.0333 33.61 53.5868 34.1215L41.1847 48.2708C40.8581 48.6496 40.4545 48.9537 40.0009 49.1626C39.5474 49.3714 39.0545 49.4802 38.5556 49.4815ZM43.9626 17.7802C43.9279 17.7814 43.8941 17.7907 43.8636 17.8074C43.8332 17.824 43.8071 17.8476 43.7873 17.8762L31.3798 32.0255C31.3455 32.0643 31.324 32.1128 31.3183 32.1644C31.3125 32.216 31.3229 32.2681 31.348 32.3135C31.3644 32.3631 31.3968 32.4057 31.4401 32.4347C31.4834 32.4637 31.5351 32.4774 31.587 32.4735H36.6488C37.0798 32.4735 37.4932 32.6455 37.798 32.9515C38.1028 33.2576 38.274 33.6727 38.274 34.1055V45.9508C38.2706 46.005 38.2855 46.0588 38.3164 46.1033C38.3472 46.1479 38.3922 46.1806 38.444 46.1962C38.4923 46.2206 38.5476 46.2269 38.6001 46.2143C38.6526 46.2016 38.6989 46.1706 38.7308 46.1269L51.1383 31.9722C51.1752 31.9352 51.1997 31.8875 51.2083 31.8359C51.2168 31.7842 51.2091 31.7312 51.1861 31.6842C51.1651 31.6348 51.1292 31.5933 51.0834 31.5656C51.0377 31.5378 50.9844 31.5252 50.9311 31.5295H45.8694C45.4378 31.5281 45.0244 31.355 44.7198 31.0481C44.4151 30.7412 44.2441 30.3255 44.2441 29.8922V18.0468C44.2475 17.9927 44.2326 17.9389 44.2018 17.8944C44.1709 17.8498 44.1259 17.8171 44.0741 17.8015C44.0378 17.7904 44.0004 17.7833 43.9626 17.7802Z" fill="white"/>
<path d="M30.2446 20.4744H18.772C18.3563 20.4505 17.9654 20.2679 17.6795 19.964C17.3937 19.6601 17.2344 19.2578 17.2344 18.8397C17.2344 18.4217 17.3937 18.0194 17.6795 17.7155C17.9654 17.4115 18.3563 17.2289 18.772 17.2051H30.2446C30.6603 17.2289 31.0511 17.4115 31.337 17.7155C31.6229 18.0194 31.7822 18.4217 31.7822 18.8397C31.7822 19.2578 31.6229 19.6601 31.337 19.964C31.0511 20.2679 30.6603 20.4505 30.2446 20.4744Z" fill="white"/>
<path d="M28.6012 46.7952H18.7698C18.3388 46.7952 17.9254 46.6233 17.6206 46.3172C17.3158 46.0112 17.1445 45.5961 17.1445 45.1632C17.1445 44.7304 17.3158 44.3153 17.6206 44.0092C17.9254 43.7032 18.3388 43.5312 18.7698 43.5312H28.6012C29.0323 43.5312 29.4457 43.7032 29.7505 44.0092C30.0553 44.3153 30.2265 44.7304 30.2265 45.1632C30.2265 45.5961 30.0553 46.0112 29.7505 46.3172C29.4457 46.6233 29.0323 46.7952 28.6012 46.7952Z" fill="white"/>
<path d="M77.0957 27.9141V12.0527H80.5906V27.9141H77.0957Z" fill="#171D25"/>
<path d="M97.3302 22.3537L97.1072 17.3724V12.0391H100.645V27.9164H97.6224L89.7774 17.7831L89.9102 22.9884V27.9164H86.3516V12.0551H89.3738L97.3302 22.3537Z" fill="#171D25"/>
<path d="M115.747 15.8772C114.871 14.9492 113.336 14.5439 112.098 14.5439C110.542 14.5439 109.278 15.1999 109.278 16.2879C109.278 17.7332 110.653 18.0052 112.682 18.1866C115.795 18.4586 118.748 19.6586 118.748 23.3279C118.748 26.8586 115.503 28.3999 112.098 28.4212C109.368 28.4212 106.527 27.3812 105.193 25.1626L107.318 22.9652C107.909 23.6705 108.648 24.2368 109.481 24.6238C110.315 25.0109 111.222 25.2094 112.141 25.2052C114.01 25.2052 115.296 24.4586 115.296 23.3279C115.296 21.9892 114.233 21.3812 112.109 21.1946C108.773 20.8746 105.794 20.0372 105.841 16.3039C105.841 13.1572 108.837 11.5039 112.088 11.5039C114.52 11.5039 116.337 12.0372 117.967 13.9466L115.747 15.8772Z" fill="#171D25"/>
<path d="M126.837 15.1994H122.057V12.0527H135.155V15.1994H130.374V27.9141H126.879L126.837 15.1994Z" fill="#171D25"/>
<path d="M149.329 25.185H141.219L140.072 27.9156H136.279L143.359 12.0703H147.205L154.274 27.9156H150.461L149.329 25.185ZM145.277 15.649L142.552 22.049H147.986L145.277 15.649Z" fill="#171D25"/>
<path d="M169.176 22.3537L168.953 17.3724V12.0391H172.49V27.9164H169.468L161.623 17.7831L161.756 22.9884V27.9164H158.197V12.0551H161.219L169.176 22.3537Z" fill="#171D25"/>
<path d="M181.683 15.1994H176.902V12.0527H190V15.1994H185.22V27.9141H181.725L181.683 15.1994Z" fill="#171D25"/>
<path d="M86.4224 39.9737C85.5407 39.0457 84.011 38.635 82.7681 38.635C81.2119 38.635 79.9531 39.2964 79.9531 40.379C79.9531 41.8297 81.3287 42.1017 83.3577 42.283C86.4649 42.555 89.418 43.755 89.418 47.419C89.418 50.955 86.1727 52.491 82.7681 52.5177C80.0434 52.5177 77.2018 51.451 75.8633 49.2537L77.9613 47.0617C78.5534 47.7662 79.292 48.3318 80.1252 48.7188C80.9585 49.1058 81.866 49.3047 82.784 49.3017C84.659 49.3017 85.9443 48.555 85.9443 47.419C85.9443 46.0857 84.8821 45.4724 82.7575 45.2857C79.4219 44.9657 76.4475 44.1284 76.49 40.395C76.49 37.2484 79.491 35.5684 82.7362 35.5684C85.1689 35.5684 86.9854 36.1017 88.6213 38.0164L86.4224 39.9737Z" fill="#171D25"/>
<path d="M97.6026 47.5084V51.9938H94.0918V36.1484H101.528C105.564 36.1484 107.572 38.7724 107.572 41.8284C107.572 44.9964 105.543 47.4658 101.528 47.5084H97.6026ZM97.6026 44.2711H101.528C103.222 44.2711 104.056 43.1618 104.056 41.8978C104.065 41.5683 104.004 41.2407 103.878 40.9363C103.752 40.632 103.564 40.3576 103.325 40.1312C103.087 39.9048 102.803 39.7314 102.494 39.6222C102.184 39.5131 101.855 39.4707 101.528 39.4978H97.6079L97.6026 44.2711Z" fill="#171D25"/>
<path d="M122.084 49.2791H113.989L112.842 51.9938H109.055L116.129 36.1484H119.964L127.023 51.9938H123.215L122.084 49.2791ZM118.047 39.7218L115.338 46.1538H120.756L118.047 39.7218Z" fill="#171D25"/>
<path d="M144.018 50.0678C143.214 50.843 142.264 51.4487 141.223 51.849C140.182 52.2493 139.072 52.4361 137.958 52.3985C131.935 52.3985 129.545 48.5051 129.523 44.1798C129.523 40.0838 132.179 35.7852 137.958 35.7852C139.037 35.7865 140.105 36.0031 141.099 36.4225C142.094 36.8418 142.996 37.4555 143.753 38.2278L141.543 40.4251C140.559 39.5446 139.276 39.0752 137.958 39.1132C134.373 39.1132 132.976 41.8971 132.997 44.2065C133.018 46.5158 134.256 49.1398 137.958 49.1398C139.389 49.1167 140.765 48.5793 141.835 47.6252L144.018 50.0678Z" fill="#171D25"/>
<path d="M160.36 51.9938H148.34V36.1484H160.025V39.3858H151.792V42.4418H159.568V45.5404H151.792V48.7404H160.36V51.9938Z" fill="#171D25"/>

<defs>
<linearGradient id="paint0_linear_822_3675" x1="59.6099" y1="4.144" x2="4.89574" y2="58.6333" gradientUnits="userSpaceOnUse">
<stop stop-color="#0064FA"/>
<stop offset="1" stop-color="#054AAD"/>
</linearGradient>
</defs>
</svg>
